<svg xmlns="http://www.w3.org/2000/svg" xmlns:xlink="http://www.w3.org/1999/xlink" width="450" zoomAndPan="magnify" viewBox="0 0 337.5 187.499995" height="250" preserveAspectRatio="xMidYMid meet" version="1.0"><path fill="#3447a9" d="M 133.949219 58.695312 L 134.582031 58.691406 L 135.285156 58.695312 L 136.023438 58.695312 C 136.703125 58.691406 137.382812 58.691406 138.066406 58.695312 C 138.796875 58.695312 139.53125 58.695312 140.261719 58.691406 C 141.699219 58.691406 143.136719 58.691406 144.574219 58.691406 C 145.738281 58.695312 146.90625 58.695312 148.074219 58.691406 L 149.589844 58.691406 C 152.75 58.691406 155.914062 58.691406 159.074219 58.695312 C 161.792969 58.695312 164.507812 58.695312 167.222656 58.695312 C 170.707031 58.695312 174.195312 58.691406 177.679688 58.691406 L 178.183594 58.691406 C 179.347656 58.695312 180.515625 58.695312 181.679688 58.691406 C 183.101562 58.691406 184.523438 58.691406 185.941406 58.695312 C 186.667969 58.695312 187.394531 58.695312 188.117188 58.695312 C 188.902344 58.691406 189.6875 58.695312 190.472656 58.695312 L 191.175781 58.691406 L 191.808594 58.695312 L 192.359375 58.695312 C 192.8125 58.71875 192.8125 58.71875 193.371094 58.90625 C 192.785156 60.179688 191.875 61.25 190.753906 62.085938 L 190.378906 62.644531 L 190.003906 62.644531 L 189.859375 62.96875 C 189.609375 63.433594 189.324219 63.792969 188.976562 64.1875 L 188.632812 64.589844 L 188.324219 64.890625 L 187.949219 64.890625 L 187.949219 65.261719 L 187.574219 65.261719 L 187.457031 65.570312 C 187.105469 66.179688 186.617188 66.625 186.113281 67.109375 C 185.535156 67.671875 184.96875 68.226562 184.464844 68.851562 C 183.800781 69.640625 183.800781 69.640625 183.273438 69.9375 C 182.746094 69.992188 182.214844 70.015625 181.6875 70.011719 L 181.195312 70.015625 C 180.652344 70.019531 180.109375 70.019531 179.566406 70.019531 L 178.398438 70.023438 C 177.34375 70.03125 176.285156 70.03125 175.230469 70.03125 C 174.125 70.035156 173.023438 70.039062 171.917969 70.042969 C 169.828125 70.050781 167.738281 70.058594 165.644531 70.0625 C 163.265625 70.066406 160.886719 70.074219 158.507812 70.082031 C 153.609375 70.101562 148.714844 70.113281 143.816406 70.125 C 143.816406 77.476562 143.8125 84.828125 143.804688 92.175781 L 143.804688 92.644531 C 143.804688 95.144531 143.804688 97.644531 143.800781 100.148438 C 143.800781 102.714844 143.800781 105.28125 143.800781 107.847656 C 143.796875 109.433594 143.796875 111.015625 143.796875 112.601562 C 143.796875 113.6875 143.796875 114.773438 143.796875 115.859375 C 143.796875 116.484375 143.796875 117.113281 143.792969 117.738281 C 143.792969 118.417969 143.792969 119.097656 143.792969 119.777344 L 143.792969 121.40625 C 143.824219 122.082031 143.917969 122.75 144.003906 123.421875 L 176.730469 123.421875 C 176.460938 122.617188 176.226562 122.011719 175.824219 121.285156 L 175.511719 120.714844 L 175.1875 120.125 C 174.535156 118.945312 173.890625 117.765625 173.273438 116.566406 L 172.984375 116.011719 L 172.800781 115.566406 L 172.988281 115.191406 C 174.382812 115.175781 175.777344 115.160156 177.171875 115.152344 C 177.644531 115.148438 178.121094 115.144531 178.59375 115.136719 C 179.277344 115.128906 179.957031 115.125 180.640625 115.121094 L 181.28125 115.109375 C 181.832031 115.109375 182.355469 115.117188 182.898438 115.191406 C 183.765625 115.714844 184.152344 116.371094 184.644531 117.230469 C 185.210938 118.285156 185.742188 119.359375 186.269531 120.433594 C 186.445312 120.785156 186.621094 121.132812 186.796875 121.480469 L 187.105469 122.089844 L 187.382812 122.625 C 187.574219 123.046875 187.574219 123.046875 187.574219 123.421875 L 193.371094 123.421875 L 193.371094 121.96875 C 193.371094 117.457031 193.375 112.941406 193.386719 108.429688 C 193.390625 106.109375 193.394531 103.789062 193.394531 101.46875 C 193.394531 99.449219 193.394531 97.425781 193.402344 95.402344 C 193.40625 94.332031 193.410156 93.261719 193.40625 92.191406 C 193.402344 91.183594 193.40625 90.175781 193.410156 89.167969 C 193.414062 88.796875 193.414062 88.425781 193.410156 88.058594 C 193.394531 85.269531 193.394531 85.269531 193.800781 84.359375 C 194.070312 83.988281 194.335938 83.703125 194.679688 83.402344 C 194.863281 83.199219 195.042969 82.996094 195.222656 82.789062 C 195.402344 82.597656 195.585938 82.402344 195.769531 82.210938 L 196.359375 81.578125 L 196.648438 81.269531 C 197.519531 80.332031 198.371094 79.378906 199.203125 78.410156 C 199.957031 77.546875 200.746094 76.710938 201.535156 75.871094 C 202.0625 75.308594 202.589844 74.742188 203.105469 74.160156 L 203.367188 73.871094 C 203.59375 73.613281 203.824219 73.355469 204.050781 73.09375 L 204.40625 72.742188 L 204.777344 72.742188 C 204.785156 81.527344 204.789062 90.3125 204.789062 99.097656 L 204.789062 99.65625 C 204.789062 102.648438 204.792969 105.640625 204.792969 108.632812 C 204.796875 111.699219 204.796875 114.765625 204.796875 117.835938 C 204.796875 119.730469 204.796875 121.621094 204.800781 123.515625 C 204.800781 124.8125 204.800781 126.109375 204.800781 127.410156 C 204.800781 128.15625 204.800781 128.90625 204.800781 129.65625 C 204.800781 130.339844 204.800781 131.027344 204.800781 131.710938 C 204.800781 132.078125 204.800781 132.445312 204.804688 132.816406 L 204.800781 133.46875 L 204.800781 134.035156 L 204.777344 134.453125 L 204.59375 134.640625 C 204.265625 134.664062 203.9375 134.675781 203.609375 134.679688 L 202.972656 134.691406 L 202.28125 134.699219 L 201.578125 134.710938 C 200.960938 134.722656 200.34375 134.730469 199.726562 134.742188 C 199.09375 134.75 198.464844 134.761719 197.832031 134.769531 C 196.59375 134.789062 195.359375 134.808594 194.121094 134.828125 L 194.28125 135.121094 C 194.527344 135.5625 194.773438 136.003906 195.019531 136.445312 L 195.273438 136.902344 C 196.339844 138.820312 196.339844 138.820312 196.828125 139.726562 C 197.054688 140.144531 197.285156 140.558594 197.519531 140.972656 L 197.941406 141.734375 L 198.148438 142.097656 C 198.339844 142.441406 198.339844 142.441406 198.609375 143.054688 C 198.53125 143.46875 198.53125 143.46875 198.421875 143.804688 C 196.996094 143.808594 195.570312 143.8125 194.148438 143.8125 C 193.664062 143.816406 193.179688 143.816406 192.695312 143.816406 C 191.996094 143.820312 191.300781 143.820312 190.605469 143.824219 L 189.335938 143.824219 L 188.796875 143.828125 C 188.351562 143.804688 187.992188 143.765625 187.574219 143.617188 C 187.246094 143.183594 187.246094 143.183594 187.015625 142.683594 L 187.015625 141.933594 L 186.453125 141.746094 C 186.203125 141.347656 185.972656 140.941406 185.761719 140.519531 L 185.570312 140.144531 C 185.023438 139.085938 184.488281 138.023438 183.964844 136.953125 C 183.636719 136.289062 183.308594 135.632812 182.898438 135.015625 C 182.457031 134.792969 182.195312 134.804688 181.703125 134.800781 L 180.59375 134.800781 L 179.976562 134.796875 C 179.292969 134.796875 178.605469 134.792969 177.921875 134.792969 L 176.449219 134.789062 C 175.394531 134.785156 174.335938 134.78125 173.28125 134.78125 C 171.75 134.777344 170.222656 134.769531 168.695312 134.765625 C 166.214844 134.757812 163.734375 134.75 161.253906 134.746094 L 160.804688 134.742188 L 154.027344 134.726562 L 153.578125 134.722656 C 151.109375 134.714844 148.640625 134.710938 146.167969 134.703125 C 144.644531 134.695312 143.117188 134.691406 141.59375 134.6875 C 140.425781 134.6875 139.257812 134.683594 138.089844 134.679688 C 137.609375 134.675781 137.128906 134.675781 136.648438 134.675781 C 135.996094 134.675781 135.34375 134.671875 134.691406 134.667969 L 133.582031 134.667969 L 133.125 134.664062 L 132.785156 134.640625 L 132.597656 134.453125 C 132.578125 134.054688 132.570312 133.652344 132.574219 133.25 L 132.574219 132.863281 C 132.574219 132.429688 132.574219 131.996094 132.574219 131.5625 L 132.574219 130.628906 C 132.574219 129.765625 132.574219 128.90625 132.574219 128.046875 C 132.574219 127.117188 132.574219 126.191406 132.574219 125.265625 C 132.574219 123.65625 132.574219 122.050781 132.578125 120.441406 C 132.578125 118.117188 132.578125 115.796875 132.578125 113.472656 C 132.578125 109.703125 132.582031 105.933594 132.582031 102.160156 C 132.585938 98.5 132.585938 94.835938 132.585938 91.171875 L 132.585938 87.09375 C 132.589844 77.699219 132.59375 68.300781 132.597656 58.90625 C 133.074219 58.664062 133.414062 58.695312 133.949219 58.695312 " fill-opacity="1" fill-rule="nonzero"/><path fill="#000000" d="M 33.339844 65.789062 L 33.957031 65.777344 C 34.886719 65.769531 35.816406 65.761719 36.746094 65.757812 C 37.238281 65.757812 37.726562 65.75 38.21875 65.742188 C 38.925781 65.734375 39.632812 65.730469 40.339844 65.726562 L 41.003906 65.714844 C 41.566406 65.714844 42.09375 65.730469 42.648438 65.824219 C 43.378906 66.414062 43.667969 67.289062 44.023438 68.144531 L 44.195312 68.546875 C 44.378906 68.980469 44.558594 69.414062 44.742188 69.84375 C 44.867188 70.144531 44.992188 70.441406 45.121094 70.738281 C 45.367188 71.324219 45.617188 71.914062 45.863281 72.5 C 46.289062 73.511719 46.71875 74.519531 47.148438 75.523438 L 47.351562 75.996094 C 47.699219 76.816406 48.066406 77.628906 48.445312 78.433594 C 48.929688 79.46875 49.363281 80.519531 49.789062 81.578125 C 50.488281 83.308594 51.226562 85.015625 51.980469 86.722656 C 52.53125 87.957031 53.070312 89.195312 53.601562 90.4375 C 54.246094 91.945312 54.894531 93.453125 55.550781 94.953125 C 56 95.992188 56.449219 97.027344 56.898438 98.066406 C 57.871094 100.316406 58.847656 102.566406 59.859375 104.796875 C 60.601562 106.441406 61.324219 108.085938 61.960938 109.777344 C 62.472656 111.113281 63.070312 112.402344 63.6875 113.695312 C 64.386719 115.167969 65.039062 116.636719 65.609375 118.164062 C 65.96875 119.089844 66.386719 119.984375 66.808594 120.882812 L 67.34375 122.050781 C 67.707031 122.832031 68.070312 123.613281 68.4375 124.390625 L 68.945312 125.488281 L 69.1875 125.996094 L 69.410156 126.476562 L 69.605469 126.894531 C 69.808594 127.472656 69.878906 128.046875 69.949219 128.65625 C 68.472656 128.671875 66.996094 128.679688 65.519531 128.6875 C 64.832031 128.6875 64.144531 128.691406 63.460938 128.699219 C 62.796875 128.707031 62.136719 128.707031 61.472656 128.710938 C 61.097656 128.710938 60.722656 128.714844 60.347656 128.71875 L 59.65625 128.71875 L 59.042969 128.722656 C 58.542969 128.65625 58.542969 128.65625 58.207031 128.398438 C 57.929688 128.023438 57.753906 127.652344 57.570312 127.226562 L 57.34375 126.699219 L 57.105469 126.132812 L 56.855469 125.550781 C 56.605469 124.964844 56.359375 124.378906 56.113281 123.792969 L 55.902344 123.292969 C 55.648438 122.695312 55.398438 122.097656 55.144531 121.496094 C 54.664062 120.347656 54.164062 119.207031 53.664062 118.070312 C 53.273438 117.175781 52.894531 116.277344 52.519531 115.378906 L 52.3125 114.886719 C 52.144531 114.492188 51.976562 114.09375 51.8125 113.695312 C 48.066406 113.683594 44.320312 113.675781 40.578125 113.667969 C 38.835938 113.664062 37.097656 113.660156 35.359375 113.65625 C 33.84375 113.648438 32.328125 113.644531 30.8125 113.644531 C 30.011719 113.644531 29.207031 113.640625 28.40625 113.636719 C 27.652344 113.632812 26.894531 113.632812 26.140625 113.632812 C 25.863281 113.632812 25.585938 113.632812 25.308594 113.628906 C 24.929688 113.628906 24.550781 113.628906 24.175781 113.628906 L 23.53125 113.628906 C 23.011719 113.652344 23.011719 113.652344 22.671875 113.953125 C 22.382812 114.351562 22.226562 114.746094 22.054688 115.207031 L 21.824219 115.808594 L 21.574219 116.464844 C 21.394531 116.9375 21.210938 117.410156 21.027344 117.882812 L 20.878906 118.265625 C 20.226562 119.941406 19.527344 121.597656 18.828125 123.257812 L 18.636719 123.71875 C 16.773438 128.164062 16.773438 128.164062 16.28125 128.65625 C 15.925781 128.675781 15.570312 128.679688 15.214844 128.679688 L 14.519531 128.679688 L 13.769531 128.675781 L 13 128.675781 C 12.328125 128.671875 11.65625 128.671875 10.980469 128.667969 C 10.292969 128.667969 9.605469 128.667969 8.921875 128.667969 C 7.570312 128.664062 6.222656 128.660156 4.875 128.65625 C 4.996094 128 5.15625 127.453125 5.445312 126.847656 L 5.683594 126.328125 L 5.949219 125.769531 C 6.765625 124.015625 7.554688 122.25 8.324219 120.476562 L 8.476562 120.121094 C 8.882812 119.171875 9.292969 118.226562 9.699219 117.277344 C 10.128906 116.273438 10.558594 115.273438 10.988281 114.269531 C 11.871094 112.203125 12.765625 110.144531 13.664062 108.085938 C 14.628906 105.871094 15.59375 103.652344 16.542969 101.429688 C 16.957031 100.460938 17.375 99.492188 17.796875 98.523438 L 18.421875 97.089844 L 18.578125 96.726562 C 19.277344 95.121094 19.960938 93.507812 20.628906 91.886719 C 21.179688 90.554688 21.75 89.226562 22.347656 87.914062 C 23.066406 86.339844 23.746094 84.75 24.414062 83.15625 C 25.445312 80.714844 26.488281 78.277344 27.535156 75.84375 C 27.824219 75.171875 28.113281 74.496094 28.402344 73.824219 C 30.453125 69.015625 30.453125 69.015625 31.371094 67.167969 L 31.546875 66.804688 C 31.6875 66.535156 31.835938 66.273438 31.988281 66.011719 C 32.464844 65.773438 32.804688 65.796875 33.339844 65.789062 M 37.039062 78.914062 C 36.832031 79.265625 36.632812 79.621094 36.429688 79.976562 L 36.089844 80.578125 C 35.785156 81.171875 35.59375 81.769531 35.410156 82.410156 C 34.886719 84.171875 34.152344 85.839844 33.4375 87.527344 C 33.164062 88.179688 32.890625 88.832031 32.617188 89.488281 L 32.414062 89.972656 C 31.867188 91.285156 31.332031 92.601562 30.8125 93.921875 C 30.398438 94.972656 29.953125 96.003906 29.496094 97.03125 C 28.929688 98.3125 28.40625 99.613281 27.878906 100.914062 L 27.671875 101.421875 L 27.492188 101.875 C 27.316406 102.289062 27.316406 102.289062 27.105469 102.660156 C 26.878906 103.113281 26.878906 103.113281 26.941406 103.972656 L 47.886719 103.972656 C 47.71875 103.148438 47.480469 102.464844 47.144531 101.707031 L 46.976562 101.3125 C 46.855469 101.035156 46.734375 100.757812 46.613281 100.480469 C 46.289062 99.738281 45.96875 98.996094 45.648438 98.25 L 45.453125 97.796875 C 44.785156 96.25 44.144531 94.695312 43.503906 93.140625 C 42.988281 91.894531 42.472656 90.644531 41.953125 89.402344 L 41.769531 88.96875 L 41.042969 87.226562 C 40.441406 85.785156 39.84375 84.347656 39.269531 82.898438 L 39.011719 82.242188 C 38.855469 81.84375 38.699219 81.445312 38.546875 81.046875 L 38.339844 80.523438 L 38.164062 80.070312 C 37.957031 79.628906 37.734375 79.28125 37.414062 78.914062 Z M 214.316406 81.34375 C 214.75 81.300781 214.75 81.300781 215.296875 81.300781 L 215.917969 81.296875 L 216.589844 81.300781 L 217.277344 81.300781 C 217.757812 81.304688 218.238281 81.304688 218.71875 81.308594 C 219.457031 81.308594 220.191406 81.3125 220.929688 81.3125 L 222.328125 81.3125 L 223 81.316406 L 223.621094 81.320312 L 224.167969 81.320312 C 224.601562 81.34375 224.601562 81.34375 224.976562 81.53125 L 224.976562 82.09375 C 224.996094 86.613281 225.015625 91.128906 225.039062 95.644531 C 225.050781 97.828125 225.058594 100.015625 225.066406 102.199219 C 225.074219 104.101562 225.085938 106.007812 225.09375 107.910156 C 225.097656 108.917969 225.105469 109.925781 225.109375 110.933594 C 225.113281 111.882812 225.117188 112.832031 225.121094 113.78125 C 225.121094 114.128906 225.125 114.476562 225.125 114.824219 C 225.128906 115.300781 225.128906 115.777344 225.132812 116.253906 L 225.132812 116.667969 C 225.140625 117.574219 225.234375 118.394531 225.347656 119.308594 L 245.917969 119.308594 L 245.90625 111.097656 C 245.902344 109.386719 245.902344 107.675781 245.902344 105.964844 C 245.898438 103.246094 245.894531 100.527344 245.890625 97.808594 C 245.886719 95.828125 245.886719 93.847656 245.882812 91.867188 C 245.882812 90.816406 245.882812 89.769531 245.878906 88.71875 C 245.878906 87.734375 245.875 86.746094 245.878906 85.761719 C 245.878906 85.398438 245.875 85.035156 245.875 84.671875 C 245.871094 84.179688 245.875 83.683594 245.875 83.191406 L 245.871094 82.75 C 245.871094 82.40625 245.894531 82.0625 245.917969 81.71875 L 246.292969 81.34375 C 246.726562 81.300781 246.726562 81.300781 247.273438 81.300781 L 247.894531 81.296875 L 248.566406 81.300781 L 249.253906 81.300781 C 249.734375 81.304688 250.214844 81.304688 250.695312 81.308594 C 251.433594 81.308594 252.171875 81.3125 252.90625 81.3125 L 254.304688 81.3125 L 254.976562 81.316406 L 255.597656 81.320312 L 256.144531 81.320312 C 256.578125 81.34375 256.578125 81.34375 256.953125 81.53125 L 256.953125 128.65625 L 247.042969 128.65625 C 246.855469 128.097656 246.816406 127.683594 246.796875 127.101562 L 246.769531 126.519531 L 246.75 125.910156 L 246.726562 125.296875 C 246.703125 124.796875 246.6875 124.296875 246.667969 123.792969 C 245.933594 124.507812 245.269531 125.257812 244.609375 126.039062 C 243.953125 126.820312 243.285156 127.570312 242.554688 128.28125 L 242.179688 128.65625 C 241.628906 128.734375 241.628906 128.734375 240.925781 128.773438 L 240.546875 128.792969 C 239.230469 128.863281 237.910156 128.871094 236.589844 128.867188 C 236.332031 128.867188 236.070312 128.867188 235.8125 128.871094 C 235.269531 128.871094 234.730469 128.871094 234.1875 128.867188 C 233.644531 128.867188 233.101562 128.867188 232.558594 128.867188 C 229.726562 128.871094 226.894531 128.859375 224.066406 128.785156 L 223.410156 128.773438 C 221.46875 128.710938 219.707031 128.386719 218.027344 127.382812 C 217.722656 127.1875 217.421875 126.988281 217.121094 126.785156 L 217.121094 126.414062 L 216.746094 126.414062 C 215.636719 125.066406 214.734375 123.632812 214.316406 121.925781 C 213.941406 119.617188 213.886719 117.328125 213.894531 114.992188 L 213.890625 113.898438 C 213.890625 112.917969 213.890625 111.9375 213.890625 110.960938 C 213.894531 109.929688 213.890625 108.902344 213.890625 107.875 C 213.890625 106.152344 213.890625 104.429688 213.894531 102.707031 C 213.894531 100.714844 213.894531 98.722656 213.894531 96.730469 C 213.890625 95.015625 213.890625 93.300781 213.890625 91.585938 C 213.890625 90.5625 213.890625 89.542969 213.890625 88.519531 C 213.890625 87.5625 213.890625 86.601562 213.894531 85.644531 C 213.894531 85.289062 213.894531 84.9375 213.890625 84.585938 C 213.890625 84.105469 213.894531 83.628906 213.894531 83.148438 L 213.890625 82.722656 C 213.894531 82.386719 213.917969 82.054688 213.941406 81.71875 Z M 288.742188 81.34375 C 289.25 81.308594 289.761719 81.296875 290.269531 81.300781 L 290.753906 81.296875 C 291.292969 81.296875 291.832031 81.296875 292.371094 81.300781 L 293.523438 81.300781 C 294.570312 81.296875 295.617188 81.300781 296.667969 81.300781 C 297.761719 81.304688 298.855469 81.304688 299.949219 81.304688 C 301.785156 81.304688 303.621094 81.304688 305.457031 81.308594 C 307.585938 81.308594 309.710938 81.3125 311.839844 81.3125 C 313.882812 81.3125 315.925781 81.3125 317.964844 81.3125 C 318.835938 81.3125 319.707031 81.3125 320.578125 81.3125 C 321.605469 81.316406 322.628906 81.316406 323.652344 81.316406 C 324.03125 81.316406 324.40625 81.316406 324.785156 81.316406 C 325.296875 81.316406 325.808594 81.320312 326.320312 81.320312 L 326.78125 81.320312 C 327.128906 81.320312 327.476562 81.332031 327.824219 81.34375 L 328.011719 81.53125 C 328.039062 82.074219 328.050781 82.609375 328.058594 83.148438 L 328.0625 83.640625 C 328.066406 83.988281 328.066406 84.335938 328.066406 84.679688 C 328.070312 85.207031 328.078125 85.738281 328.085938 86.265625 C 328.089844 86.601562 328.089844 86.9375 328.09375 87.273438 L 328.101562 87.75 C 328.097656 88.527344 328.050781 88.945312 327.671875 89.640625 C 327.027344 90.425781 327.027344 90.425781 326.671875 90.792969 L 326.34375 91.136719 L 326.003906 91.492188 C 325.132812 92.40625 324.308594 93.328125 323.535156 94.324219 C 322.394531 95.765625 321.175781 97.140625 319.9375 98.492188 C 319.34375 99.136719 318.769531 99.804688 318.21875 100.488281 C 317.488281 101.394531 316.714844 102.242188 315.917969 103.089844 C 315.242188 103.816406 314.625 104.566406 314.042969 105.371094 L 313.800781 105.65625 L 313.425781 105.65625 L 313.289062 105.976562 C 313.011719 106.480469 312.675781 106.847656 312.28125 107.269531 C 311.710938 107.890625 311.164062 108.519531 310.644531 109.183594 C 309.996094 110.007812 309.300781 110.777344 308.589844 111.539062 C 308.035156 112.144531 307.5 112.765625 306.988281 113.40625 C 306.359375 114.1875 305.699219 114.929688 305.011719 115.660156 C 303.878906 116.871094 302.753906 118.109375 301.832031 119.492188 L 328.199219 119.492188 C 328.410156 121.175781 328.410156 121.175781 328.410156 121.804688 L 328.414062 122.226562 L 328.410156 122.671875 L 328.414062 123.136719 C 328.414062 123.460938 328.410156 123.785156 328.410156 124.109375 C 328.410156 124.601562 328.410156 125.097656 328.414062 125.59375 C 328.414062 125.910156 328.414062 126.222656 328.410156 126.539062 L 328.414062 126.988281 C 328.410156 127.59375 328.394531 128.078125 328.199219 128.65625 L 287.433594 128.65625 C 287.433594 121.175781 287.433594 121.175781 288.179688 119.679688 C 288.578125 119.179688 288.578125 119.179688 288.988281 118.746094 L 289.4375 118.265625 L 289.863281 117.8125 C 290.085938 117.5625 290.300781 117.3125 290.519531 117.0625 C 291.003906 116.507812 291.496094 115.957031 291.992188 115.414062 C 292.574219 114.769531 293.128906 114.113281 293.675781 113.441406 C 294.28125 112.6875 294.910156 111.972656 295.566406 111.265625 C 296.355469 110.417969 297.097656 109.542969 297.824219 108.644531 C 299.242188 106.914062 300.730469 105.25 302.25 103.609375 C 302.933594 102.863281 303.585938 102.089844 304.234375 101.320312 C 304.78125 100.675781 305.351562 100.082031 305.945312 99.484375 C 306.269531 99.109375 306.589844 98.730469 306.90625 98.351562 C 307.601562 97.515625 308.316406 96.703125 309.054688 95.910156 C 309.863281 95.039062 310.613281 94.140625 311.355469 93.214844 C 311.800781 92.683594 312.277344 92.210938 312.789062 91.75 C 313.117188 91.367188 313.25 90.976562 313.425781 90.507812 L 313.042969 90.511719 C 309.957031 90.523438 306.875 90.53125 303.789062 90.539062 C 302.300781 90.539062 300.808594 90.542969 299.316406 90.550781 C 298.015625 90.554688 296.71875 90.558594 295.417969 90.5625 C 294.730469 90.5625 294.042969 90.5625 293.351562 90.566406 C 292.585938 90.574219 291.820312 90.574219 291.050781 90.574219 L 290.355469 90.578125 L 289.726562 90.574219 L 289.175781 90.578125 L 288.742188 90.507812 C 288.367188 89.949219 288.367188 89.949219 288.320312 89.570312 L 288.320312 89.132812 L 288.316406 88.640625 L 288.320312 88.105469 L 288.316406 87.558594 C 288.316406 87.175781 288.316406 86.792969 288.320312 86.410156 C 288.320312 85.824219 288.320312 85.238281 288.316406 84.648438 C 288.316406 84.277344 288.316406 83.90625 288.320312 83.535156 L 288.316406 83.003906 L 288.320312 82.507812 C 288.320312 82.363281 288.320312 82.222656 288.320312 82.074219 L 288.367188 81.71875 Z M 206.273438 51.613281 C 206.707031 51.667969 206.972656 51.761719 207.324219 52.019531 L 207.617188 52.296875 L 207.953125 52.613281 L 208.308594 52.957031 L 208.675781 53.308594 C 208.933594 53.550781 209.1875 53.796875 209.441406 54.042969 C 209.824219 54.414062 210.210938 54.78125 210.601562 55.148438 C 210.84375 55.378906 211.082031 55.609375 211.324219 55.84375 L 211.671875 56.171875 C 211.988281 56.480469 211.988281 56.480469 212.445312 57.035156 C 212.417969 57.398438 212.417969 57.398438 212.257812 57.785156 C 212.003906 58.132812 212.003906 58.132812 211.679688 58.488281 L 211.320312 58.882812 C 210.742188 59.503906 210.15625 60.125 209.570312 60.742188 C 208.609375 61.757812 207.695312 62.792969 206.824219 63.890625 C 206.382812 64.425781 205.902344 64.910156 205.398438 65.386719 C 205.128906 65.636719 205.128906 65.636719 204.964844 66.011719 L 204.59375 66.011719 L 204.464844 66.320312 C 204.144531 66.890625 203.71875 67.339844 203.269531 67.8125 L 202.710938 68.414062 L 202.425781 68.714844 C 202.050781 69.121094 201.6875 69.535156 201.320312 69.949219 C 200.710938 70.632812 200.074219 71.28125 199.425781 71.925781 C 198.738281 72.605469 198.085938 73.292969 197.457031 74.027344 C 197.027344 74.523438 196.585938 75.007812 196.140625 75.488281 L 195.878906 75.777344 C 195.316406 76.386719 194.757812 76.992188 194.195312 77.601562 C 192.71875 79.195312 191.257812 80.792969 189.890625 82.484375 C 189.496094 82.964844 189.101562 83.4375 188.699219 83.90625 C 187.628906 85.160156 186.601562 86.445312 185.589844 87.746094 C 185.332031 88.078125 185.070312 88.40625 184.808594 88.734375 C 182.046875 92.207031 179.597656 95.910156 177.136719 99.601562 L 176.84375 100.046875 C 174.636719 103.355469 172.5 106.699219 170.4375 110.097656 C 169.976562 110.855469 169.511719 111.617188 169.050781 112.375 L 168.785156 112.808594 L 168.539062 113.210938 L 168.324219 113.566406 C 168.140625 113.863281 167.945312 114.152344 167.753906 114.445312 C 167.359375 114.4375 167.359375 114.4375 166.816406 114.257812 C 166.367188 113.832031 166 113.347656 165.625 112.855469 L 165.296875 112.4375 C 164.992188 112.050781 164.6875 111.660156 164.386719 111.265625 L 164.023438 110.796875 C 163.828125 110.546875 163.632812 110.296875 163.4375 110.042969 C 162.617188 108.996094 161.773438 107.972656 160.933594 106.945312 C 160.683594 106.636719 160.4375 106.332031 160.1875 106.027344 C 159.359375 105.011719 158.519531 104.003906 157.667969 103.003906 C 157.140625 102.382812 156.621094 101.75 156.113281 101.109375 C 155.269531 100.074219 154.363281 99.109375 153.445312 98.144531 C 152.871094 97.539062 152.304688 96.929688 151.757812 96.296875 C 151.335938 95.808594 150.898438 95.332031 150.441406 94.871094 L 150.121094 94.542969 C 149.902344 94.320312 149.683594 94.097656 149.460938 93.878906 C 149.171875 93.578125 148.910156 93.289062 148.679688 92.941406 C 148.660156 92.4375 148.660156 92.4375 148.867188 92.003906 C 149.160156 91.632812 149.160156 91.632812 149.53125 91.28125 L 149.945312 90.886719 C 150.429688 90.449219 150.921875 90.023438 151.417969 89.601562 C 151.78125 89.269531 152.121094 88.929688 152.460938 88.570312 L 152.785156 88.230469 C 152.996094 88.007812 153.207031 87.78125 153.417969 87.550781 C 153.71875 87.234375 153.71875 87.234375 154.289062 86.769531 C 154.75 86.792969 154.75 86.792969 155.222656 86.957031 C 155.566406 87.226562 155.566406 87.226562 155.882812 87.574219 L 156.238281 87.960938 L 156.601562 88.371094 L 156.960938 88.761719 C 157.667969 89.53125 158.355469 90.316406 159.039062 91.109375 C 159.34375 91.449219 159.664062 91.777344 159.992188 92.097656 C 160.5625 92.65625 161.085938 93.242188 161.605469 93.847656 C 161.980469 94.277344 162.363281 94.695312 162.75 95.113281 C 163.539062 95.984375 164.261719 96.898438 164.96875 97.835938 C 165.464844 98.484375 165.960938 98.996094 166.628906 99.484375 L 166.757812 99.109375 C 167.082031 98.375 167.511719 97.742188 167.964844 97.078125 L 168.257812 96.636719 C 169.199219 95.246094 170.15625 93.871094 171.117188 92.492188 C 171.820312 91.492188 172.515625 90.480469 173.203125 89.46875 C 174.296875 87.851562 175.441406 86.265625 176.628906 84.714844 C 176.929688 84.320312 177.226562 83.925781 177.523438 83.53125 C 179.058594 81.5 180.667969 79.550781 182.351562 77.644531 C 182.644531 77.308594 182.9375 76.96875 183.226562 76.625 C 184.234375 75.429688 185.261719 74.289062 186.386719 73.195312 C 186.996094 72.566406 187.53125 71.886719 188.082031 71.199219 C 188.667969 70.5 189.3125 69.867188 189.964844 69.230469 C 190.300781 68.898438 190.609375 68.5625 190.90625 68.195312 C 191.324219 67.679688 191.78125 67.230469 192.25 66.757812 C 192.527344 66.441406 192.800781 66.121094 193.066406 65.796875 C 193.460938 65.347656 193.882812 64.933594 194.308594 64.515625 C 195.953125 62.894531 195.953125 62.894531 197.507812 61.183594 C 197.972656 60.648438 198.453125 60.128906 198.933594 59.605469 L 199.226562 59.289062 L 199.816406 58.65625 C 200.34375 58.082031 200.871094 57.507812 201.398438 56.933594 C 201.832031 56.460938 202.265625 55.988281 202.699219 55.515625 C 203.460938 54.6875 204.21875 53.863281 204.953125 53.015625 L 205.261719 52.664062 C 205.488281 52.40625 205.710938 52.144531 205.9375 51.882812 Z M 115.773438 81.132812 L 117.917969 81.132812 C 118.4375 81.132812 118.957031 81.132812 119.476562 81.132812 C 120.144531 81.136719 120.8125 81.136719 121.476562 81.132812 C 122.113281 81.132812 122.75 81.132812 123.386719 81.132812 L 124.785156 81.132812 L 125.378906 81.136719 C 125.863281 81.160156 125.863281 81.160156 126.425781 81.34375 C 126.648438 81.789062 126.636719 82.054688 126.632812 82.550781 L 126.632812 83.074219 L 126.628906 83.636719 L 126.628906 84.214844 C 126.628906 84.824219 126.625 85.433594 126.625 86.042969 C 126.625 86.457031 126.621094 86.871094 126.621094 87.28125 C 126.621094 88.296875 126.617188 89.308594 126.613281 90.320312 C 125.683594 90.625 124.90625 90.742188 123.921875 90.734375 L 123.519531 90.734375 C 123.089844 90.734375 122.660156 90.730469 122.226562 90.726562 L 121.316406 90.722656 C 120.523438 90.71875 119.726562 90.714844 118.929688 90.710938 C 117.660156 90.703125 116.386719 90.695312 115.117188 90.691406 C 114.675781 90.691406 114.234375 90.6875 113.796875 90.683594 C 111.496094 90.632812 111.496094 90.632812 109.222656 90.882812 C 108.929688 91.460938 109.007812 92.078125 109.007812 92.714844 L 109.003906 93.175781 C 109 93.6875 109 94.199219 109 94.710938 L 108.992188 95.8125 C 108.992188 96.601562 108.988281 97.390625 108.984375 98.183594 C 108.980469 99.429688 108.976562 100.679688 108.972656 101.925781 C 108.960938 104.800781 108.949219 107.675781 108.9375 110.550781 C 108.929688 113.1875 108.917969 115.820312 108.90625 118.457031 C 108.902344 119.699219 108.898438 120.941406 108.894531 122.183594 C 108.890625 122.953125 108.886719 123.726562 108.886719 124.496094 C 108.882812 124.855469 108.882812 125.214844 108.882812 125.574219 C 108.878906 126.0625 108.878906 126.550781 108.875 127.035156 L 108.875 127.472656 C 108.871094 127.804688 108.863281 128.136719 108.847656 128.46875 L 108.660156 128.65625 C 108.328125 128.675781 107.996094 128.683594 107.664062 128.679688 L 107.019531 128.683594 L 105.601562 128.683594 C 105.101562 128.683594 104.601562 128.683594 104.101562 128.679688 C 103.460938 128.679688 102.816406 128.679688 102.175781 128.683594 C 101.566406 128.683594 100.953125 128.683594 100.34375 128.683594 L 99.644531 128.683594 L 98.996094 128.679688 L 98.425781 128.679688 L 98 128.65625 L 97.8125 128.46875 C 97.796875 128.21875 97.789062 127.96875 97.789062 127.71875 L 97.789062 126.097656 C 97.785156 125.453125 97.785156 124.808594 97.785156 124.164062 L 97.785156 122.78125 C 97.785156 121.660156 97.78125 120.535156 97.78125 119.414062 C 97.78125 118.5 97.78125 117.589844 97.78125 116.675781 C 97.78125 113.953125 97.777344 111.226562 97.78125 108.503906 L 97.78125 108.078125 C 97.777344 105.816406 97.777344 103.550781 97.773438 101.289062 C 97.773438 98.96875 97.769531 96.644531 97.773438 94.324219 C 97.773438 93.019531 97.769531 91.714844 97.769531 90.410156 C 97.765625 89.183594 97.765625 87.960938 97.769531 86.734375 C 97.769531 86.28125 97.769531 85.832031 97.765625 85.378906 C 97.765625 84.765625 97.765625 84.152344 97.769531 83.539062 L 97.765625 82.992188 L 97.765625 82.066406 L 97.8125 81.71875 L 98.1875 81.34375 C 98.570312 81.296875 98.570312 81.296875 99.042969 81.296875 L 99.578125 81.292969 L 100.160156 81.296875 L 100.757812 81.292969 C 101.175781 81.292969 101.59375 81.296875 102.011719 81.296875 C 102.648438 81.296875 103.289062 81.296875 103.925781 81.292969 C 104.332031 81.292969 104.734375 81.296875 105.140625 81.296875 L 105.71875 81.292969 L 106.261719 81.296875 C 106.417969 81.296875 106.574219 81.296875 106.734375 81.296875 C 107.164062 81.34375 107.164062 81.34375 107.914062 81.71875 L 108.097656 86.582031 L 108.660156 86.582031 L 108.78125 86.195312 C 109.113281 85.472656 109.578125 84.945312 110.097656 84.347656 L 110.382812 84.011719 C 111.339844 82.910156 112.34375 81.910156 113.710938 81.34375 C 114.40625 81.175781 115.054688 81.136719 115.773438 81.132812 M 203.097656 10.472656 C 203.480469 10.414062 203.480469 10.414062 203.941406 10.429688 L 204.453125 10.445312 L 204.964844 10.472656 L 205.410156 10.492188 C 212.453125 10.871094 219.480469 13.34375 225.457031 17.046875 C 225.992188 17.398438 226.515625 17.761719 227.03125 18.140625 L 227.578125 18.53125 C 229.398438 19.867188 231.175781 21.285156 232.742188 22.914062 C 233.050781 23.234375 233.050781 23.234375 233.578125 23.644531 C 234.28125 24.246094 234.851562 24.914062 235.445312 25.621094 L 235.859375 26.097656 C 237.160156 27.617188 238.339844 29.222656 239.488281 30.859375 C 239.652344 31.09375 239.816406 31.324219 239.984375 31.554688 C 240.167969 31.808594 240.335938 32.082031 240.496094 32.351562 L 240.496094 33.097656 L 240.871094 33.097656 C 242.824219 36.613281 244.484375 40.246094 245.546875 44.132812 L 245.6875 44.648438 C 246.324219 46.992188 246.785156 49.339844 247.113281 51.742188 L 247.207031 52.429688 C 247.398438 53.960938 247.503906 55.492188 247.414062 57.035156 L 247.226562 57.222656 C 246.949219 57.242188 246.667969 57.25 246.390625 57.253906 L 245.847656 57.257812 L 245.257812 57.261719 L 244.660156 57.261719 C 244.238281 57.265625 243.820312 57.265625 243.398438 57.265625 C 242.753906 57.269531 242.109375 57.273438 241.464844 57.28125 C 241.058594 57.28125 240.652344 57.28125 240.246094 57.285156 L 239.660156 57.289062 L 239.117188 57.289062 L 238.636719 57.292969 C 238.511719 57.269531 238.382812 57.246094 238.253906 57.222656 C 237.878906 56.660156 237.878906 56.660156 237.816406 56.273438 L 237.792969 55.824219 L 237.761719 55.3125 L 237.726562 54.757812 C 237.410156 50.640625 236.355469 46.855469 234.886719 43.011719 L 234.714844 42.558594 C 233.332031 38.996094 231.132812 35.769531 228.550781 32.96875 C 228.191406 32.578125 227.84375 32.179688 227.5 31.777344 C 225.070312 29.019531 222.160156 26.898438 218.992188 25.058594 L 218.640625 24.855469 C 213.832031 22.082031 208.421875 20.859375 202.910156 20.570312 C 202.757812 19.382812 202.691406 18.222656 202.691406 17.023438 L 202.6875 16.507812 C 202.6875 16.148438 202.6875 15.792969 202.6875 15.433594 C 202.6875 14.886719 202.683594 14.339844 202.679688 13.792969 C 202.679688 13.445312 202.679688 13.09375 202.679688 12.746094 L 202.675781 12.25 L 202.675781 11.386719 C 202.722656 11.03125 202.722656 11.03125 203.097656 10.472656 M 267.984375 81.34375 C 268.429688 81.300781 268.429688 81.300781 268.988281 81.304688 L 269.625 81.304688 L 270.3125 81.308594 L 271.015625 81.3125 C 271.632812 81.3125 272.25 81.316406 272.867188 81.320312 C 273.496094 81.324219 274.125 81.324219 274.753906 81.328125 C 275.988281 81.332031 277.222656 81.335938 278.457031 81.34375 C 278.671875 81.773438 278.667969 82.011719 278.667969 82.488281 L 278.667969 84.09375 C 278.667969 84.734375 278.667969 85.371094 278.667969 86.011719 L 278.667969 87.378906 C 278.671875 88.492188 278.671875 89.605469 278.667969 90.714844 C 278.667969 92.011719 278.667969 93.304688 278.667969 94.601562 C 278.671875 97.050781 278.667969 99.5 278.667969 101.949219 C 278.667969 104.054688 278.667969 106.15625 278.667969 108.261719 C 278.667969 110.960938 278.671875 113.660156 278.667969 116.363281 L 278.667969 116.75 C 278.667969 117.652344 278.667969 118.554688 278.667969 119.460938 C 278.671875 120.675781 278.671875 121.890625 278.667969 123.105469 C 278.667969 123.550781 278.667969 124 278.667969 124.445312 C 278.667969 125.054688 278.667969 125.664062 278.667969 126.269531 L 278.667969 127.730469 C 278.644531 128.097656 278.644531 128.097656 278.457031 128.65625 L 267.613281 128.65625 C 267.601562 121.835938 267.59375 115.019531 267.589844 108.199219 C 267.589844 105.925781 267.585938 103.652344 267.582031 101.378906 C 267.578125 99.046875 267.578125 96.714844 267.578125 94.382812 C 267.574219 92.941406 267.574219 91.503906 267.570312 90.0625 C 267.570312 88.960938 267.566406 87.859375 267.570312 86.757812 C 267.570312 86.304688 267.566406 85.847656 267.566406 85.394531 C 267.566406 84.78125 267.566406 84.164062 267.566406 83.546875 L 267.5625 82.996094 L 267.566406 82.5 L 267.566406 82.066406 L 267.613281 81.71875 Z M 76.683594 81.34375 C 77.097656 81.296875 77.097656 81.296875 77.625 81.292969 L 78.21875 81.289062 L 78.859375 81.289062 L 79.519531 81.285156 C 79.980469 81.285156 80.445312 81.285156 80.90625 81.285156 C 81.609375 81.285156 82.316406 81.28125 83.023438 81.277344 C 83.472656 81.277344 83.917969 81.277344 84.367188 81.277344 L 85.007812 81.273438 L 85.605469 81.277344 L 86.128906 81.277344 C 86.59375 81.34375 86.59375 81.34375 86.992188 81.515625 L 87.34375 81.90625 C 87.457031 82.515625 87.441406 83.121094 87.433594 83.742188 L 87.4375 84.316406 C 87.4375 84.960938 87.433594 85.601562 87.429688 86.242188 C 87.429688 86.699219 87.429688 87.160156 87.429688 87.617188 C 87.433594 88.734375 87.429688 89.851562 87.425781 90.972656 C 87.421875 92.273438 87.421875 93.570312 87.417969 94.871094 C 87.417969 97.191406 87.414062 99.511719 87.410156 101.832031 C 87.402344 104.226562 87.398438 106.621094 87.398438 109.011719 L 87.394531 110.6875 C 87.394531 112.832031 87.390625 114.976562 87.386719 117.121094 L 87.386719 119.066406 C 87.382812 120.546875 87.382812 122.023438 87.375 123.503906 C 87.375 123.953125 87.375 124.402344 87.375 124.851562 C 87.375 125.460938 87.371094 126.074219 87.371094 126.683594 L 87.371094 127.230469 L 87.367188 127.722656 L 87.367188 128.148438 L 87.34375 128.46875 L 87.15625 128.65625 C 86.816406 128.675781 86.476562 128.679688 86.136719 128.679688 L 85.480469 128.679688 L 84.765625 128.675781 L 84.035156 128.675781 C 83.394531 128.671875 82.753906 128.671875 82.113281 128.667969 C 81.460938 128.667969 80.808594 128.667969 80.15625 128.667969 C 78.875 128.664062 77.589844 128.660156 76.308594 128.65625 C 76.300781 121.835938 76.292969 115.015625 76.289062 108.199219 C 76.285156 105.925781 76.285156 103.652344 76.28125 101.378906 C 76.277344 99.046875 76.273438 96.714844 76.273438 94.382812 C 76.273438 92.941406 76.273438 91.503906 76.269531 90.0625 C 76.265625 88.960938 76.265625 87.859375 76.265625 86.757812 C 76.265625 86.304688 76.265625 85.847656 76.265625 85.394531 C 76.261719 84.78125 76.261719 84.164062 76.265625 83.546875 L 76.261719 82.996094 L 76.261719 82.066406 L 76.308594 81.71875 Z M 76.683594 81.34375 " fill-opacity="1" fill-rule="nonzero"/><path fill="#000000" d="M 203.097656 31.417969 C 206.394531 31.09375 209.878906 32.097656 212.855469 33.445312 C 215.230469 34.570312 217.386719 35.910156 219.292969 37.722656 C 219.652344 38.066406 220.027344 38.390625 220.417969 38.699219 C 223.191406 41.085938 225.25 44.839844 226.472656 48.246094 C 227.347656 50.902344 228.347656 54.226562 228.152344 57.035156 L 227.96875 57.222656 C 227.667969 57.238281 227.371094 57.246094 227.070312 57.242188 L 225.863281 57.242188 L 225.222656 57.238281 C 224.542969 57.238281 223.867188 57.238281 223.1875 57.234375 C 222.726562 57.234375 222.269531 57.230469 221.8125 57.230469 C 220.683594 57.230469 219.558594 57.226562 218.429688 57.222656 L 218.371094 56.835938 C 218.277344 56.25 218.183594 55.664062 218.089844 55.082031 L 217.992188 54.472656 C 217.5625 51.824219 216.714844 49.644531 215.0625 47.5 L 214.726562 47.058594 C 213.257812 45.28125 211.320312 43.773438 209.195312 42.875 C 207.464844 42.265625 205.6875 41.824219 203.882812 41.5 L 203.328125 41.402344 L 202.910156 41.328125 C 202.902344 39.945312 202.902344 38.5625 202.898438 37.183594 C 202.898438 36.710938 202.894531 36.242188 202.894531 35.773438 C 202.894531 35.097656 202.890625 34.421875 202.890625 33.75 L 202.886719 33.105469 L 202.886719 31.996094 L 202.910156 31.601562 Z M 77.601562 62.429688 L 78.167969 62.425781 L 79.40625 62.425781 C 79.847656 62.425781 80.289062 62.425781 80.726562 62.425781 C 81.398438 62.421875 82.070312 62.421875 82.742188 62.417969 C 83.171875 62.414062 83.597656 62.414062 84.027344 62.414062 L 84.632812 62.410156 C 85.671875 62.414062 86.550781 62.46875 87.527344 62.832031 L 87.714844 63.019531 C 87.734375 63.339844 87.738281 63.660156 87.742188 63.980469 L 87.742188 65.96875 C 87.742188 66.453125 87.742188 66.933594 87.742188 67.417969 C 87.738281 68.160156 87.742188 68.898438 87.742188 69.640625 C 87.742188 70.109375 87.742188 70.574219 87.742188 71.042969 L 87.742188 71.71875 L 87.738281 72.34375 L 87.738281 72.894531 L 87.714844 73.304688 L 87.527344 73.492188 C 87.175781 73.511719 86.820312 73.515625 86.464844 73.515625 L 84.257812 73.515625 C 83.722656 73.515625 83.1875 73.515625 82.652344 73.515625 C 81.964844 73.515625 81.277344 73.515625 80.589844 73.515625 C 80.0625 73.515625 79.535156 73.515625 79.007812 73.515625 C 78.753906 73.515625 78.503906 73.515625 78.25 73.515625 C 77.894531 73.515625 77.542969 73.515625 77.1875 73.515625 L 76.578125 73.515625 L 76.121094 73.492188 L 75.933594 73.304688 C 75.722656 72.191406 75.71875 71.09375 75.714844 69.964844 L 75.714844 69.382812 C 75.714844 68.980469 75.714844 68.574219 75.714844 68.171875 C 75.710938 67.554688 75.710938 66.933594 75.707031 66.316406 C 75.707031 65.921875 75.703125 65.53125 75.703125 65.136719 L 75.699219 64.578125 L 75.703125 64.054688 L 75.703125 63.597656 C 75.746094 63.207031 75.746094 63.207031 76.121094 62.644531 C 76.671875 62.460938 77.027344 62.433594 77.601562 62.429688 M 270.515625 62.410156 L 271.144531 62.40625 C 271.582031 62.40625 272.019531 62.40625 272.457031 62.410156 C 273.125 62.410156 273.792969 62.410156 274.460938 62.40625 C 274.886719 62.40625 275.3125 62.40625 275.738281 62.410156 L 276.34375 62.40625 C 277.308594 62.414062 278.117188 62.445312 279.019531 62.832031 C 279.023438 64.195312 279.027344 65.558594 279.027344 66.917969 C 279.027344 67.550781 279.03125 68.183594 279.03125 68.816406 C 279.035156 69.542969 279.035156 70.269531 279.035156 70.996094 L 279.039062 71.6875 L 279.039062 72.882812 L 279.019531 73.304688 L 278.832031 73.492188 C 278.476562 73.507812 278.121094 73.511719 277.761719 73.511719 L 276.316406 73.511719 L 275.550781 73.507812 C 274.878906 73.507812 274.203125 73.507812 273.53125 73.503906 C 272.84375 73.503906 272.15625 73.5 271.46875 73.5 C 270.121094 73.5 268.773438 73.496094 267.425781 73.492188 C 267.171875 73.070312 267.050781 72.769531 267.011719 72.277344 L 267.023438 71.75 L 267.035156 71.148438 L 267.054688 70.503906 L 267.070312 69.839844 C 267.085938 69.140625 267.101562 68.441406 267.121094 67.742188 C 267.132812 67.265625 267.140625 66.792969 267.152344 66.320312 C 267.179688 65.15625 267.207031 63.996094 267.238281 62.832031 C 268.320312 62.367188 269.359375 62.402344 270.515625 62.410156 " fill-opacity="1" fill-rule="nonzero"/><path fill="#293b88" d="M 132.597656 133.707031 L 182.527344 133.707031 L 182.710938 134.078125 L 181.03125 134.078125 L 181.777344 134.453125 L 181.777344 134.640625 L 132.785156 134.640625 Z M 204.777344 133.519531 C 204.785156 133.832031 204.785156 134.140625 204.777344 134.453125 L 204.59375 134.640625 C 204.304688 134.65625 204.015625 134.664062 203.730469 134.664062 L 203.171875 134.664062 L 202.570312 134.660156 L 201.953125 134.660156 C 201.300781 134.65625 200.648438 134.65625 200 134.652344 C 199.558594 134.652344 199.117188 134.652344 198.675781 134.648438 C 197.59375 134.648438 196.511719 134.644531 195.429688 134.640625 L 195.242188 133.707031 L 202.363281 133.558594 L 202.964844 133.546875 L 203.519531 133.535156 L 204.011719 133.527344 C 204.269531 133.519531 204.523438 133.519531 204.777344 133.519531 " fill-opacity="1" fill-rule="nonzero"/></svg>